                            =!HD DESI ROCKER RELEASES!=






PLOT

Release Title  : Spider-Man [2002] BRRIP 720p [6 CH.] [HINDI] ~i2009ak
Release Date   : 24 May 2002 (India)
Release Length : 1h 56mn

Tagline        : With great power comes great responsibility.

Storyline      :

Based on Marvel Comics' superhero character, this is a story of Peter Parker
who is a nerdy high-schooler. He was orphaned as a child, bullied by jocks, 
and can't confess his crush for his stunning neighborhood girl Mary Jane Watson.
To say his life is "miserable" is an understatement. But one day while on an 
excursion to a laboratory a runaway radioactive spider bites him... and his life 
changes in a way no one could have imagined. Peter acquires a muscle-bound physique,
clear vision, ability to cling to surfaces and crawl over walls, shooting webs from
his wrist ... but the fun isn't going to last. An eccentric millionaire Norman Osborn
administers a performance enhancing drug on himself and his maniacal alter ego Green 
Goblin emerges. Now Peter Parker has to become Spider-Man and take Green Goblin to the 
task... or else Goblin will kill him. They come face to face and the war begins in which
only one of them will survive at the end.

CAST          :

Tobey Maguire	 ... 	Spider-Man / Peter Parker

Willem Dafoe	... 	Green Goblin / Norman Osborn

Kirsten Dunst	... 	Mary Jane Watson

James Franco	... 	Harry Osborn

Cliff Robertson	... 	Ben Parker

Rosemary Harris	... 	May Parker

J.K. Simmons	... 	J. Jonah Jameson

Joe Manganiello	... 	Flash Thompson

Gerry Becker	... 	Maximilian Fargas

Bill Nunn	... 	Joseph 'Robbie' Robertson

Jack Betts	... 	Henry Balkan

Stanley Anderson	... 	General Slocum

Ron Perkins	... 	Dr. Mendell Stromm

Michael Papajohn	... 	Carjacker

K.K. Dodds	... 	Simkins


INFO          :

Title............................: Spider-Man [2002] BRRIP 720p [6 CH.] [HINDI] ~i2009ak
Genre............................: Action | Adventure | Fantasy
Directer.........................: Sam Raimi
Writer...........................: Stan Lee (Marvel comic book) and
Steve Ditko (Marvel comic book) and David Koepp (screenplay)
IMDB.............................: http://www.imdb.com/title/tt0145487/
year.............................: 24 May 2002 (India)
User Rating......................: 7.4/10   167,275 votes »
File size........................: 1.47 GB
Run time.........................: 1h 36mn
Languages........................: Hindi
Subtittle........................: NONE
Ripper...........................: i2009ak


General
Complete name                    : Spider-Man [2002] BRRIP 720p [6 CH.] [HINDI] ~i2009ak.mkv
Format                           : Matroska
File size                        : 1.47 GiB
Duration                         : 1h 56mn
Overall bit rate                 : 1 806 Kbps
Encoded date                     : UTC 2010-09-09 12:48:51
Writing application              : mkvmerge v2.9.8 ('C'est le bon') built on Aug 13 2009 12:49:06
Writing library                  : libebml v0.7.7 + libmatroska v0.8.1

Video
ID                               : 1
Format                           : AVC
Format/Info                      : Advanced Video Codec
Format profile                   : Main@L4.1
Format settings, CABAC           : Yes
Format settings, ReFrames        : 3 frames
Muxing mode                      : Container profile=Unknown@4.1
Codec ID                         : V_MPEG4/ISO/AVC
Duration                         : 1h 56mn
Bit rate                         : 1 450 Kbps
Nominal bit rate                 : 1 424 Kbps
Width                            : 1 280 pixels
Height                           : 688 pixels
Display aspect ratio             : 1.860
Frame rate                       : 25.000 fps
Original frame rate              : 23.976 fps
Resolution                       : 24 bits
Colorimetry                      : 4:2:0
Scan type                        : Progressive
Bits/(Pixel*Frame)               : 0.066
Stream size                      : 1.18 GiB (80%)
Writing library                  : x264 core 65
Encoding settings                : cabac=1 / ref=3 / deblock=1:0:0 / analyse=0x1:0x111 / me=hex / subme=6 / psy_rd=1.0:0.0 / mixed_ref=0 / me_range=16 / chroma_me=1 / trellis=2 / 8x8dct=0 / cqm=0 / deadzone=21,11 / chroma_qp_offset=-2 / threads=3 / nr=0 / decimate=1 / mbaff=0 / bframes=0 / keyint=240 / keyint_min=24 / scenecut=40(pre) / rc=2pass / bitrate=1424 / ratetol=1.0 / qcomp=0.60 / qpmin=10 / qpmax=51 / qpstep=4 / cplxblur=20.0 / qblur=0.5 / ip_ratio=1.40 / aq=1:1.00
Color primaries                  : BT.709-5, BT.1361, IEC 61966-2-4, SMPTE RP177
Transfer characteristics         : BT.709-5, BT.1361
Matrix coefficients              : BT.709-5, BT.1361, IEC 61966-2-4 709, SMPTE RP177

Audio
ID                               : 2
Format                           : AC-3
Format/Info                      : Audio Coding 3
Codec ID                         : A_AC3
Duration                         : 1h 56mn
Bit rate mode                    : Constant
Bit rate                         : 320 Kbps
Channel(s)                       : 6 channels
Channel positions                : Front: L C R, Surround: L R, LFE
Sampling rate                    : 48.0 KHz
Video delay                      : 30ms
Stream size                      : 266 MiB (18%)
Language                         : Hindi

SAMPLE


SCREENSHOTS
 
http://i774.photobucket.com/albums/yy22/i2009ak/SPIDERMAN/vlcsnap-2010-09-09-19h13m06s126.png 
http://i774.photobucket.com/albums/yy22/i2009ak/SPIDERMAN/vlcsnap-2010-09-09-19h40m22s67.png 
http://i774.photobucket.com/albums/yy22/i2009ak/SPIDERMAN/vlcsnap-2010-09-09-19h43m28s143.png 
http://i774.photobucket.com/albums/yy22/i2009ak/SPIDERMAN/vlcsnap-2010-09-09-19h46m03s155.png 
http://i774.photobucket.com/albums/yy22/i2009ak/SPIDERMAN/vlcsnap-2010-09-09-19h51m16s207.png 
http://i774.photobucket.com/albums/yy22/i2009ak/SPIDERMAN/vlcsnap-2010-09-09-19h54m54s184.png 
http://i774.photobucket.com/albums/yy22/i2009ak/SPIDERMAN/vlcsnap-2010-09-09-20h03m28s97.png 
http://i774.photobucket.com/albums/yy22/i2009ak/SPIDERMAN/vlcsnap-2010-09-09-20h04m24s164.png 
http://i774.photobucket.com/albums/yy22/i2009ak/SPIDERMAN/vlcsnap-2010-09-09-20h04m47s143.png 
http://i774.photobucket.com/albums/yy22/i2009ak/SPIDERMAN/vlcsnap-2010-09-09-20h07m07s252.png 
http://i774.photobucket.com/albums/yy22/i2009ak/SPIDERMAN/vlcsnap-2010-09-09-20h07m43s96.png 
http://i774.photobucket.com/albums/yy22/i2009ak/SPIDERMAN/vlcsnap-2010-09-09-20h12m49s43.png